<svg width="134" height="182" viewBox="0 0 134 182" fill="none" xmlns="http://www.w3.org/2000/svg">
<path d="M39.4688 176.694C40.941 176.694 42.0451 177.801 42.0451 179.278C42.0451 180.756 40.941 181.863 39.4688 181.863C37.9967 181.863 36.8926 180.756 36.8926 179.278C36.8926 177.801 38.1194 176.694 39.4688 176.694Z" fill="#FFCF2D"/>
<path d="M39.4688 154.661C40.941 154.661 42.0451 155.769 42.0451 157.246C42.0451 158.723 40.941 159.831 39.4688 159.831C37.9967 159.831 36.8926 158.723 36.8926 157.246C36.8926 155.892 38.1194 154.661 39.4688 154.661Z" fill="#FFCF2D"/>
<path d="M39.4688 132.752C40.941 132.752 42.0451 133.86 42.0451 135.337C42.0451 136.814 40.941 137.922 39.4688 137.922C37.9967 137.922 36.8926 136.814 36.8926 135.337C36.8926 133.86 38.1194 132.752 39.4688 132.752Z" fill="#FFCF2D"/>
<path d="M39.4688 110.719C40.941 110.719 42.0451 111.827 42.0451 113.304C42.0451 114.781 40.941 115.889 39.4688 115.889C37.9967 115.889 36.8926 114.781 36.8926 113.304C36.8926 111.827 38.1194 110.719 39.4688 110.719Z" fill="#FFCF2D"/>
<path d="M39.4688 88.6868C40.941 88.6868 42.0451 89.7946 42.0451 91.2716C42.0451 92.7487 40.941 93.8564 39.4688 93.8564C37.9967 93.8564 36.8926 92.7487 36.8926 91.2716C36.8926 89.9177 38.1194 88.6868 39.4688 88.6868Z" fill="#FFCF2D"/>
<path d="M39.4688 66.6536C40.941 66.6536 42.0451 67.7614 42.0451 69.2384C42.0451 70.7155 40.941 71.8232 39.4688 71.8232C37.9967 71.8232 36.8926 70.7155 36.8926 69.2384C36.8926 67.7614 38.1194 66.6536 39.4688 66.6536Z" fill="#FFCF2D"/>
<path d="M39.4688 44.7454C40.941 44.7454 42.0451 45.8532 42.0451 47.3302C42.0451 48.8073 40.941 49.915 39.4688 49.915C37.9967 49.915 36.8926 48.8073 36.8926 47.3302C36.8926 45.8532 38.1194 44.7454 39.4688 44.7454Z" fill="#FFCF2D"/>
<path d="M39.4688 22.7122C40.941 22.7122 42.0451 23.82 42.0451 25.297C42.0451 26.7741 40.941 27.8818 39.4688 27.8818C37.9967 27.8818 36.8926 26.7741 36.8926 25.297C36.8926 23.82 38.1194 22.7122 39.4688 22.7122Z" fill="#FFCF2D"/>
<path d="M39.4688 0.679993C40.941 0.679993 42.0451 1.78776 42.0451 3.26479C42.0451 4.74183 40.941 5.84961 39.4688 5.84961C37.9967 5.84961 36.8926 4.74183 36.8926 3.26479C36.8926 1.91084 38.1194 0.679993 39.4688 0.679993Z" fill="#FFCF2D"/>
<path d="M57.7481 176.694C59.2203 176.694 60.3244 177.801 60.3244 179.278C60.3244 180.756 59.2203 181.863 57.7481 181.863C56.276 181.863 55.1719 180.756 55.1719 179.278C55.1719 177.801 56.276 176.694 57.7481 176.694Z" fill="#FFCF2D"/>
<path d="M57.7481 154.661C59.2203 154.661 60.3244 155.769 60.3244 157.246C60.3244 158.723 59.2203 159.831 57.7481 159.831C56.276 159.831 55.1719 158.723 55.1719 157.246C55.1719 155.892 56.276 154.661 57.7481 154.661Z" fill="#FFCF2D"/>
<path d="M57.7481 132.752C59.2203 132.752 60.3244 133.86 60.3244 135.337C60.3244 136.814 59.2203 137.922 57.7481 137.922C56.276 137.922 55.1719 136.814 55.1719 135.337C55.1719 133.86 56.276 132.752 57.7481 132.752Z" fill="#FFCF2D"/>
<path d="M57.7481 110.719C59.2203 110.719 60.3244 111.827 60.3244 113.304C60.3244 114.781 59.2203 115.889 57.7481 115.889C56.276 115.889 55.1719 114.781 55.1719 113.304C55.1719 111.827 56.276 110.719 57.7481 110.719Z" fill="#FFCF2D"/>
<path d="M57.7481 88.6868C59.2203 88.6868 60.3244 89.7946 60.3244 91.2716C60.3244 92.7487 59.2203 93.8564 57.7481 93.8564C56.276 93.8564 55.1719 92.7487 55.1719 91.2716C55.1719 89.9177 56.276 88.6868 57.7481 88.6868Z" fill="#FFCF2D"/>
<path d="M57.7481 66.6536C59.2203 66.6536 60.3244 67.7614 60.3244 69.2384C60.3244 70.7155 59.2203 71.8232 57.7481 71.8232C56.276 71.8232 55.1719 70.7155 55.1719 69.2384C55.1719 67.7614 56.276 66.6536 57.7481 66.6536Z" fill="#FFCF2D"/>
<path d="M57.7481 44.7454C59.2203 44.7454 60.3244 45.8532 60.3244 47.3302C60.3244 48.8073 59.2203 49.915 57.7481 49.915C56.276 49.915 55.1719 48.8073 55.1719 47.3302C55.1719 45.8532 56.276 44.7454 57.7481 44.7454Z" fill="#FFCF2D"/>
<path d="M57.7481 22.7122C59.2203 22.7122 60.3244 23.82 60.3244 25.297C60.3244 26.7741 59.2203 27.8818 57.7481 27.8818C56.276 27.8818 55.1719 26.7741 55.1719 25.297C55.1719 23.82 56.276 22.7122 57.7481 22.7122Z" fill="#FFCF2D"/>
<path d="M57.7481 0.679978C59.2203 0.679978 60.3244 1.78775 60.3244 3.26478C60.3244 4.74182 59.2203 5.84961 57.7481 5.84961C56.276 5.84961 55.1719 4.74182 55.1719 3.26478C55.1719 1.91083 56.276 0.679978 57.7481 0.679978Z" fill="#FFCF2D"/>
<path d="M3.03329 176.694C4.50544 176.694 5.60955 177.801 5.60955 179.278C5.60955 180.756 4.50544 181.863 3.03329 181.863C1.56114 181.863 0.457031 180.756 0.457031 179.278C0.457031 177.801 1.56114 176.694 3.03329 176.694Z" fill="#FFCF2D"/>
<path d="M3.03329 154.661C4.50544 154.661 5.60955 155.769 5.60955 157.246C5.60955 158.723 4.50544 159.831 3.03329 159.831C1.56114 159.831 0.457031 158.723 0.457031 157.246C0.457031 155.892 1.56114 154.661 3.03329 154.661Z" fill="#FFCF2D"/>
<path d="M3.03329 132.752C4.50544 132.752 5.60955 133.86 5.60955 135.337C5.60955 136.814 4.50544 137.922 3.03329 137.922C1.56114 137.922 0.457031 136.691 0.457031 135.337C0.457031 133.86 1.56114 132.752 3.03329 132.752Z" fill="#FFCF2D"/>
<path d="M3.03329 110.719C4.50544 110.719 5.60955 111.827 5.60955 113.304C5.60955 114.781 4.50544 115.889 3.03329 115.889C1.56114 115.889 0.457031 114.658 0.457031 113.304C0.457031 111.95 1.56114 110.719 3.03329 110.719Z" fill="#FFCF2D"/>
<path d="M3.03329 88.6868C4.50544 88.6868 5.60955 89.7946 5.60955 91.2716C5.60955 92.7487 4.50544 93.8564 3.03329 93.8564C1.56114 93.8564 0.457031 92.7487 0.457031 91.2716C0.457031 89.9177 1.56114 88.6868 3.03329 88.6868Z" fill="#FFCF2D"/>
<path d="M3.03329 66.6536C4.50544 66.6536 5.60955 67.7614 5.60955 69.2384C5.60955 70.7155 4.50544 71.8232 3.03329 71.8232C1.56114 71.8232 0.457031 70.7155 0.457031 69.2384C0.457031 67.7614 1.56114 66.6536 3.03329 66.6536Z" fill="#FFCF2D"/>
<path d="M3.03329 44.7454C4.50544 44.7454 5.60955 45.8532 5.60955 47.3302C5.60955 48.8073 4.50544 49.915 3.03329 49.915C1.56114 49.915 0.457031 48.8073 0.457031 47.3302C0.457031 45.8532 1.56114 44.7454 3.03329 44.7454Z" fill="#FFCF2D"/>
<path d="M3.03329 22.7122C4.50544 22.7122 5.60955 23.82 5.60955 25.297C5.60955 26.7741 4.50544 27.8818 3.03329 27.8818C1.56114 27.8818 0.457031 26.7741 0.457031 25.297C0.457031 23.82 1.56114 22.7122 3.03329 22.7122Z" fill="#FFCF2D"/>
<path d="M3.03329 0.679993C4.50544 0.679993 5.60955 1.78776 5.60955 3.26479C5.60955 4.74183 4.50544 5.84961 3.03329 5.84961C1.56114 5.84961 0.457031 4.74183 0.457031 3.26479C0.457031 1.91084 1.56114 0.679993 3.03329 0.679993Z" fill="#FFCF2D"/>
<path d="M21.3126 176.694C22.7847 176.694 23.8889 177.801 23.8889 179.278C23.8889 180.756 22.6621 181.863 21.3126 181.863C19.8404 181.863 18.7363 180.756 18.7363 179.278C18.7363 177.801 19.8404 176.694 21.3126 176.694Z" fill="#FFCF2D"/>
<path d="M21.3126 154.661C22.7847 154.661 23.8888 155.769 23.8888 157.246C23.8888 158.723 22.7847 159.831 21.3126 159.831C19.8404 159.831 18.7363 158.723 18.7363 157.246C18.7363 155.892 19.8404 154.661 21.3126 154.661Z" fill="#FFCF2D"/>
<path d="M21.3126 132.752C22.7847 132.752 23.8888 133.86 23.8888 135.337C23.8888 136.814 22.7847 137.922 21.3126 137.922C19.8404 137.922 18.7363 136.814 18.7363 135.337C18.7363 133.86 19.8404 132.752 21.3126 132.752Z" fill="#FFCF2D"/>
<path d="M21.3126 110.719C22.7847 110.719 23.8888 111.827 23.8888 113.304C23.8888 114.781 22.7847 115.889 21.3126 115.889C19.8404 115.889 18.7363 114.781 18.7363 113.304C18.7363 111.827 19.8404 110.719 21.3126 110.719Z" fill="#FFCF2D"/>
<path d="M21.3126 88.6868C22.7847 88.6868 23.8889 89.7946 23.8889 91.2716C23.8889 92.7487 22.7847 93.8564 21.3126 93.8564C19.8404 93.8564 18.7363 92.7487 18.7363 91.2716C18.7363 89.9177 19.8404 88.6868 21.3126 88.6868Z" fill="#FFCF2D"/>
<path d="M21.3126 66.6536C22.7847 66.6536 23.8888 67.7614 23.8888 69.2384C23.8888 70.7155 22.7847 71.8232 21.3126 71.8232C19.8404 71.8232 18.7363 70.7155 18.7363 69.2384C18.7363 67.7614 19.8404 66.6536 21.3126 66.6536Z" fill="#FFCF2D"/>
<path d="M21.3126 44.7454C22.7847 44.7454 23.8888 45.8532 23.8888 47.3302C23.8888 48.8073 22.7847 49.915 21.3126 49.915C19.8404 49.915 18.7363 48.8073 18.7363 47.3302C18.7363 45.8532 19.8404 44.7454 21.3126 44.7454Z" fill="#FFCF2D"/>
<path d="M21.3126 22.7122C22.7847 22.7122 23.8888 23.82 23.8888 25.297C23.8888 26.7741 22.7847 27.8818 21.3126 27.8818C19.8404 27.8818 18.7363 26.7741 18.7363 25.297C18.7363 23.82 19.8404 22.7122 21.3126 22.7122Z" fill="#FFCF2D"/>
<path d="M21.3126 0.679978C22.7847 0.679978 23.8888 1.78775 23.8888 3.26478C23.8888 4.74182 22.7847 5.84961 21.3126 5.84961C19.8404 5.84961 18.7363 4.74182 18.7363 3.26478C18.7363 1.91083 19.8404 0.679978 21.3126 0.679978Z" fill="#FFCF2D"/>
<path d="M75.9049 176.694C77.377 176.694 78.4811 177.801 78.4811 179.278C78.4811 180.756 77.377 181.863 75.9049 181.863C74.4327 181.863 73.3286 180.756 73.3286 179.278C73.3286 177.801 74.5554 176.694 75.9049 176.694Z" fill="#FFCF2D"/>
<path d="M75.9049 154.661C77.377 154.661 78.4811 155.769 78.4811 157.246C78.4811 158.723 77.377 159.831 75.9049 159.831C74.4327 159.831 73.3286 158.723 73.3286 157.246C73.3286 155.892 74.5554 154.661 75.9049 154.661Z" fill="#FFCF2D"/>
<path d="M75.9049 132.752C77.377 132.752 78.4811 133.86 78.4811 135.337C78.4811 136.814 77.377 137.922 75.9049 137.922C74.4327 137.922 73.3286 136.814 73.3286 135.337C73.3286 133.86 74.5554 132.752 75.9049 132.752Z" fill="#FFCF2D"/>
<path d="M75.9049 110.719C77.377 110.719 78.4811 111.827 78.4811 113.304C78.4811 114.781 77.377 115.889 75.9049 115.889C74.4327 115.889 73.3286 114.781 73.3286 113.304C73.3286 111.827 74.5554 110.719 75.9049 110.719Z" fill="#FFCF2D"/>
<path d="M75.9049 88.6868C77.377 88.6868 78.4811 89.7946 78.4811 91.2716C78.4811 92.7487 77.377 93.8564 75.9049 93.8564C74.4327 93.8564 73.3286 92.7487 73.3286 91.2716C73.3286 89.9177 74.5554 88.6868 75.9049 88.6868Z" fill="#FFCF2D"/>
<path d="M75.9049 66.6536C77.377 66.6536 78.4811 67.7614 78.4811 69.2384C78.4811 70.7155 77.377 71.8232 75.9049 71.8232C74.4327 71.8232 73.3286 70.7155 73.3286 69.2384C73.3286 67.7614 74.5554 66.6536 75.9049 66.6536Z" fill="#FFCF2D"/>
<path d="M75.9049 44.7454C77.377 44.7454 78.4811 45.8532 78.4811 47.3302C78.4811 48.8073 77.377 49.915 75.9049 49.915C74.4327 49.915 73.3286 48.8073 73.3286 47.3302C73.3286 45.8532 74.5554 44.7454 75.9049 44.7454Z" fill="#FFCF2D"/>
<path d="M75.9049 22.7122C77.377 22.7122 78.4811 23.82 78.4811 25.297C78.4811 26.7741 77.377 27.8818 75.9049 27.8818C74.4327 27.8818 73.3286 26.7741 73.3286 25.297C73.3286 23.82 74.5554 22.7122 75.9049 22.7122Z" fill="#FFCF2D"/>
<path d="M75.9049 0.679978C77.377 0.679978 78.4811 1.78775 78.4811 3.26478C78.4811 4.74182 77.377 5.84961 75.9049 5.84961C74.4327 5.84961 73.3286 4.74182 73.3286 3.26478C73.3286 1.91083 74.5554 0.679978 75.9049 0.679978Z" fill="#FFCF2D"/>
<path d="M94.1837 176.694C95.6558 176.694 96.7599 177.801 96.7599 179.278C96.7599 180.756 95.6558 181.863 94.1837 181.863C92.7115 181.863 91.6074 180.756 91.6074 179.278C91.6074 177.801 92.7115 176.694 94.1837 176.694Z" fill="#FFCF2D"/>
<path d="M94.1837 154.661C95.6558 154.661 96.7599 155.769 96.7599 157.246C96.7599 158.723 95.6558 159.831 94.1837 159.831C92.7115 159.831 91.6074 158.723 91.6074 157.246C91.6074 155.892 92.7115 154.661 94.1837 154.661Z" fill="#FFCF2D"/>
<path d="M94.1837 132.752C95.6558 132.752 96.7599 133.86 96.7599 135.337C96.7599 136.814 95.6558 137.922 94.1837 137.922C92.7115 137.922 91.6074 136.814 91.6074 135.337C91.6074 133.86 92.7115 132.752 94.1837 132.752Z" fill="#FFCF2D"/>
<path d="M96.7599 113.304C96.7599 111.876 95.6065 110.719 94.1837 110.719C92.7608 110.719 91.6074 111.876 91.6074 113.304C91.6074 114.731 92.7608 115.889 94.1837 115.889C95.6065 115.889 96.7599 114.731 96.7599 113.304Z" fill="#FFCF2D"/>
<path d="M94.1837 88.6868C95.6558 88.6868 96.7599 89.7946 96.7599 91.2716C96.7599 92.7487 95.6558 93.8564 94.1837 93.8564C92.7115 93.8564 91.6074 92.7487 91.6074 91.2716C91.6074 89.9177 92.7115 88.6868 94.1837 88.6868Z" fill="#FFCF2D"/>
<path d="M94.1837 66.6536C95.6558 66.6536 96.7599 67.7614 96.7599 69.2384C96.7599 70.7155 95.6558 71.8232 94.1837 71.8232C92.7115 71.8232 91.6074 70.7155 91.6074 69.2384C91.6074 67.7614 92.7115 66.6536 94.1837 66.6536Z" fill="#FFCF2D"/>
<path d="M94.1837 44.7454C95.6558 44.7454 96.7599 45.8532 96.7599 47.3302C96.7599 48.8073 95.6558 49.915 94.1837 49.915C92.7115 49.915 91.6074 48.8073 91.6074 47.3302C91.6074 45.8532 92.7115 44.7454 94.1837 44.7454Z" fill="#FFCF2D"/>
<path d="M96.7599 25.297C96.7599 23.8695 95.6065 22.7122 94.1837 22.7122C92.7608 22.7122 91.6074 23.8695 91.6074 25.297C91.6074 26.7246 92.7608 27.8818 94.1837 27.8818C95.6065 27.8818 96.7599 26.7246 96.7599 25.297Z" fill="#FFCF2D"/>
<path d="M94.1837 0.679978C95.6558 0.679978 96.7599 1.78775 96.7599 3.26478C96.7599 4.74182 95.6558 5.84961 94.1837 5.84961C92.7115 5.84961 91.6074 4.74182 91.6074 3.26478C91.6074 1.91083 92.7115 0.679978 94.1837 0.679978Z" fill="#FFCF2D"/>
<path d="M112.463 176.694C113.935 176.694 115.039 177.801 115.039 179.278C115.039 180.756 113.935 181.863 112.463 181.863C110.991 181.863 109.887 180.756 109.887 179.278C109.887 177.801 110.991 176.694 112.463 176.694Z" fill="#FFCF2D"/>
<path d="M112.463 154.661C113.935 154.661 115.039 155.769 115.039 157.246C115.039 158.723 113.935 159.831 112.463 159.831C110.991 159.831 109.887 158.723 109.887 157.246C109.887 155.892 110.991 154.661 112.463 154.661Z" fill="#FFCF2D"/>
<path d="M112.463 132.752C113.935 132.752 115.039 133.86 115.039 135.337C115.039 136.814 113.935 137.922 112.463 137.922C110.991 137.922 109.887 136.814 109.887 135.337C109.887 133.86 110.991 132.752 112.463 132.752Z" fill="#FFCF2D"/>
<path d="M112.463 110.719C113.935 110.719 115.039 111.827 115.039 113.304C115.039 114.781 113.935 115.889 112.463 115.889C110.991 115.889 109.887 114.781 109.887 113.304C109.887 111.827 110.991 110.719 112.463 110.719Z" fill="#FFCF2D"/>
<path d="M112.463 88.6868C113.935 88.6868 115.039 89.7946 115.039 91.2716C115.039 92.7487 113.935 93.8564 112.463 93.8564C110.991 93.8564 109.887 92.7487 109.887 91.2716C109.887 89.9177 110.991 88.6868 112.463 88.6868Z" fill="#FFCF2D"/>
<path d="M112.463 66.6536C113.935 66.6536 115.039 67.7614 115.039 69.2384C115.039 70.7155 113.935 71.8232 112.463 71.8232C110.991 71.8232 109.887 70.7155 109.887 69.2384C109.887 67.7614 110.991 66.6536 112.463 66.6536Z" fill="#FFCF2D"/>
<path d="M112.463 44.7454C113.935 44.7454 115.039 45.8532 115.039 47.3302C115.039 48.8073 113.935 49.915 112.463 49.915C110.991 49.915 109.887 48.8073 109.887 47.3302C109.887 45.8532 110.991 44.7454 112.463 44.7454Z" fill="#FFCF2D"/>
<path d="M112.463 22.7122C113.935 22.7122 115.039 23.82 115.039 25.297C115.039 26.7741 113.935 27.8818 112.463 27.8818C110.991 27.8818 109.887 26.7741 109.887 25.297C109.887 23.82 110.991 22.7122 112.463 22.7122Z" fill="#FFCF2D"/>
<path d="M112.463 0.679978C113.935 0.679978 115.039 1.78775 115.039 3.26478C115.039 4.74182 113.935 5.84961 112.463 5.84961C110.991 5.84961 109.887 4.74182 109.887 3.26478C109.887 1.91083 110.991 0.679978 112.463 0.679978Z" fill="#FFCF2D"/>
<path d="M130.62 176.694C132.092 176.694 133.196 177.801 133.196 179.278C133.196 180.756 132.092 181.863 130.62 181.863C129.148 181.863 128.043 180.756 128.043 179.278C128.043 177.801 129.27 176.694 130.62 176.694Z" fill="#FFCF2D"/>
<path d="M130.62 154.661C132.092 154.661 133.196 155.769 133.196 157.246C133.196 158.723 132.092 159.831 130.62 159.831C129.148 159.831 128.043 158.723 128.043 157.246C128.043 155.892 129.27 154.661 130.62 154.661Z" fill="#FFCF2D"/>
<path d="M130.62 132.752C132.092 132.752 133.196 133.86 133.196 135.337C133.196 136.814 132.092 137.922 130.62 137.922C129.148 137.922 128.043 136.814 128.043 135.337C128.043 133.86 129.27 132.752 130.62 132.752Z" fill="#FFCF2D"/>
<path d="M130.62 110.719C132.092 110.719 133.196 111.827 133.196 113.304C133.196 114.781 132.092 115.889 130.62 115.889C129.148 115.889 128.043 114.781 128.043 113.304C128.043 111.827 129.27 110.719 130.62 110.719Z" fill="#FFCF2D"/>
<path d="M130.62 88.6868C132.092 88.6868 133.196 89.7946 133.196 91.2716C133.196 92.7487 132.092 93.8564 130.62 93.8564C129.148 93.8564 128.043 92.7487 128.043 91.2716C128.043 89.9177 129.27 88.6868 130.62 88.6868Z" fill="#FFCF2D"/>
<path d="M130.62 66.6536C132.092 66.6536 133.196 67.7614 133.196 69.2384C133.196 70.7155 132.092 71.8232 130.62 71.8232C129.148 71.8232 128.043 70.7155 128.043 69.2384C128.043 67.7614 129.27 66.6536 130.62 66.6536Z" fill="#FFCF2D"/>
<path d="M130.62 44.7454C132.092 44.7454 133.196 45.8532 133.196 47.3302C133.196 48.8073 132.092 49.915 130.62 49.915C129.148 49.915 128.043 48.8073 128.043 47.3302C128.043 45.8532 129.27 44.7454 130.62 44.7454Z" fill="#FFCF2D"/>
<path d="M130.62 22.7122C132.092 22.7122 133.196 23.82 133.196 25.297C133.196 26.7741 132.092 27.8818 130.62 27.8818C129.148 27.8818 128.043 26.7741 128.043 25.297C128.043 23.82 129.27 22.7122 130.62 22.7122Z" fill="#FFCF2D"/>
<path d="M130.62 0.679978C132.092 0.679978 133.196 1.78775 133.196 3.26478C133.196 4.74182 132.092 5.84961 130.62 5.84961C129.148 5.84961 128.043 4.74182 128.043 3.26478C128.043 1.91083 129.27 0.679978 130.62 0.679978Z" fill="#FFCF2D"/>
</svg>
